<?xml version="1.0" standalone="no"?><!DOCTYPE svg PUBLIC "-//W3C//DTD SVG 1.1//EN" "http://www.w3.org/Graphics/SVG/1.1/DTD/svg11.dtd"><svg class="icon" width="200px" height="200.00px" viewBox="0 0 1024 1024" version="1.1" xmlns="http://www.w3.org/2000/svg"><path fill="#bfbfbf" d="M995.491293 906.886954a934.664504 934.664504 0 0 0-296.622388-118.392971 726.356873 726.356873 0 0 0 121.912761-261.424478c23.998575-100.154053 14.719126-295.982426-81.275174-417.895187A279.663395 279.663395 0 0 0 512 0.060796a279.663395 279.663395 0 0 0-227.186511 109.113522c-95.9943 121.912761-105.59373 317.741134-81.275174 417.895187a726.356873 726.356873 0 0 0 121.912761 261.424478 934.664504 934.664504 0 0 0-296.622388 118.392971A63.9962 63.9962 0 0 0 64.026598 1024h895.946804a63.9962 63.9962 0 0 0 35.517891-117.113046zM648.631887 748.816339l-10.559373 13.439202c-76.155478 87.674794-175.66957 87.674794-252.145028 0l-10.559373-13.439202a546.847531 546.847531 0 0 1-114.233218-404.775966C278.73385 207.088504 357.129195 64.056997 512 64.056997s233.26615 143.031508 250.865105 279.983376a547.167512 547.167512 0 0 1-114.233218 404.775966zM64.026598 960.0038a870.668304 870.668304 0 0 1 274.86368-109.113522l79.355289-17.278974A168.949969 168.949969 0 0 0 512 864.009499a168.949969 168.949969 0 0 0 93.754433-30.398195l79.355289 17.278974A871.948228 871.948228 0 0 1 959.973402 960.0038z"  /></svg>