<?xml version="1.0" standalone="no"?><!DOCTYPE svg PUBLIC "-//W3C//DTD SVG 1.1//EN" "http://www.w3.org/Graphics/SVG/1.1/DTD/svg11.dtd"><svg class="icon" width="200px" height="200.00px" viewBox="0 0 1024 1024" version="1.1" xmlns="http://www.w3.org/2000/svg"><path fill="#969ba3" d="M66.782609 924.134235C66.782609 969.608815 130.972243 985.953681 257.76783 995.765876 331.288591 1001.455349 401.862423 1002.894679 502.427813 1002.894679 602.993205 1002.894679 673.567041 1001.455349 747.087805 995.765876 873.883394 985.953681 938.07303 969.608815 938.07303 924.134235 938.07303 825.974495 774.50248 736.398861 595.619074 701.056454L613.505149 721.260914 606.548627 626.758874 591.370485 649.517252C654.776057 628.438243 691.139629 584.871455 720.624818 508.35086L705.594902 521.854371C734.17163 514.224742 759.734699 495.083124 776.510549 468.236154 809.881809 414.830975 798.875029 346.43479 749.832366 315.789533 745.213961 312.903634 740.384002 310.439413 735.380137 308.408031L727.006747 329.03405 749.267616 329.034063C749.267674 231.893691 734.805638 170.253077 697.251519 128.171924L680.642702 142.993986 690.32086 163.040919C719.255561 149.071966 735.840817 129.999886 718.216562 104.822382 709.954444 93.019362 697.000982 82.663818 680.392619 72.869332 671.685663 67.734561 662.478251 63.077009 653.284005 58.940281 647.750834 56.450764 643.381622 54.659471 640.724231 53.649603L651.080936 87.184568C652.364137 85.3429 653.877439 82.783752 655.342734 79.55589 658.504686 72.590493 660.228875 65.211059 659.389347 57.176658 656.980636 34.124972 636.728663 22.26087 605.701294 22.26087 575.73827 22.26087 540.01128 40.037617 499.960267 68.57767L512.878801 86.706591 513.473932 64.453678C507.353609 64.289996 501.07274 64.20845 494.625489 64.20845 304.581703 64.20845 240.601567 135.020548 239.988322 325.629333L262.249077 325.700952 254.757457 304.738559C248.424009 307.002031 242.342473 309.94204 236.587061 313.538421 187.544398 344.183678 176.53762 412.579863 209.90888 465.985042 227.234393 493.711658 253.92605 513.201232 283.566586 520.297476L267.930738 506.530117C300.980553 593.828192 332.369734 632.815046 400.098695 649.972366L383.319411 627.574348 379.84115 722.076383 397.859931 701.039309C222.511627 734.952488 66.782609 823.693833 66.782609 924.134235ZM423.682103 741.391952 424.332763 723.71395 427.811024 629.211915 428.472792 611.232118 411.031739 606.813892C360.716317 594.06783 337.990754 565.841599 309.568449 490.76667L305.395266 479.74359 293.932601 476.99931C275.765601 472.649951 258.858593 460.304878 247.665456 442.392115 226.668727 408.790325 233.209124 368.148264 260.179988 351.294997 263.216323 349.397684 266.410597 347.85347 269.740697 346.663346L284.459544 341.403069 284.509831 325.772572C285.047292 158.718793 330.212988 108.730189 494.625489 108.730189 500.681496 108.730189 506.565904 108.806588 512.28367 108.959504L519.730541 109.158664 525.797336 104.835513C558.475954 81.548972 588.152796 66.782609 605.701294 66.782609 613.330325 66.782609 617.654695 67.662977 618.924695 68.406975 617.17691 67.383078 615.401169 64.602658 615.108693 61.803624 614.575652 61.652495 598.24583 85.13507 598.24583 85.13507L624.908502 95.267483C632.899544 98.304259 645.459808 103.955444 657.776564 111.219032 669.376824 118.060078 677.915644 124.886366 681.742933 130.353926 678.432154 125.624238 679.362823 119.004651 681.671288 116.350046 680.564366 117.622943 676.742171 120.157756 670.96454 122.947053L644.372801 135.784882 664.033885 157.816048C692.517545 189.733326 704.745926 241.853582 704.745877 329.034037L704.745868 344.022269 718.633356 349.660069C721.262801 350.727525 723.801854 352.022937 726.239441 353.54611 753.210306 370.399376 759.750701 411.041438 738.753972 444.643228 727.906861 462.002238 711.689158 474.14605 694.110431 478.839349L683.156872 481.763813 679.080515 492.34286C653.924494 557.628305 625.996693 591.088293 577.325167 607.269006L560.874318 612.738048 562.147025 630.027384 569.103547 724.529424 570.348824 741.446122 586.989621 744.733883C745.456676 776.042585 893.551291 857.14318 893.551291 924.134235 893.551291 944.329127 712.073683 958.37294 502.427813 958.37294 292.781947 958.37294 111.304348 944.329127 111.304348 924.134235 111.304348 854.33076 250.831228 774.822115 406.313982 744.751028L423.682103 741.391952Z" /></svg>