<?xml version="1.0" standalone="no"?><!DOCTYPE svg PUBLIC "-//W3C//DTD SVG 1.1//EN" "http://www.w3.org/Graphics/SVG/1.1/DTD/svg11.dtd"><svg t="1560305075100" class="icon" style="" viewBox="0 0 1024 1024" version="1.1" xmlns="http://www.w3.org/2000/svg" p-id="4306" xmlns:xlink="http://www.w3.org/1999/xlink" width="24" height="24"><defs><style type="text/css"></style></defs><path d="M233.472 410.624 106.496 410.624l0 51.2 126.976 0L233.472 410.624zM436.224 460.8l151.552 0 0-51.2L436.224 409.6 436.224 460.8zM436.224 613.376l151.552 0 0-51.2L436.224 562.176 436.224 613.376zM106.496 613.376l126.976 0 0-51.2L106.496 562.176 106.496 613.376zM5.12 131.072l0 762.88c0 41.984 33.792 75.776 75.776 75.776l177.152 0 0-51.2L106.496 918.528c-27.648 0-50.176-22.528-50.176-51.2L56.32 156.672c0-27.648 22.528-51.2 50.176-51.2l151.552 0 0-51.2L80.896 54.272C38.912 54.272 5.12 89.088 5.12 131.072zM233.472 258.048 106.496 258.048l0 51.2 126.976 0L233.472 258.048zM436.224 308.224l151.552 0 0-51.2L436.224 257.024 436.224 308.224zM790.528 460.8l126.976 0 0-51.2L790.528 409.6 790.528 460.8zM790.528 613.376l126.976 0 0-51.2L790.528 562.176 790.528 613.376zM917.504 258.048 790.528 258.048l0 51.2 126.976 0L917.504 258.048zM638.976 28.672 385.024 28.672c-41.984 0-75.776 33.792-75.776 75.776l0 813.056c0 41.984 33.792 75.776 75.776 75.776l253.952 0c41.984 0 75.776-33.792 75.776-75.776L714.752 105.472C714.752 63.488 680.96 28.672 638.976 28.672zM663.552 892.928c0 27.648-22.528 51.2-50.176 51.2L410.624 944.128c-27.648 0-50.176-22.528-50.176-51.2L360.448 131.072c0-27.648 22.528-51.2 50.176-51.2l202.752 0c27.648 0 50.176 22.528 50.176 51.2L663.552 892.928zM943.104 54.272 765.952 54.272l0 51.2 177.152 0c27.648 0 25.6 22.528 25.6 51.2l0 711.68c0 27.648 3.072 51.2-25.6 51.2L765.952 919.552l0 51.2 177.152 0c41.984 0 75.776-33.792 75.776-75.776L1018.88 131.072C1018.88 89.088 985.088 54.272 943.104 54.272z" p-id="4307" fill="#ff6b6b"></path></svg>