<?xml version="1.0" standalone="no"?><!DOCTYPE svg PUBLIC "-//W3C//DTD SVG 1.1//EN" "http://www.w3.org/Graphics/SVG/1.1/DTD/svg11.dtd"><svg t="1559741017441" class="icon" style="" viewBox="0 0 1024 1024" version="1.1" xmlns="http://www.w3.org/2000/svg" p-id="9796" xmlns:xlink="http://www.w3.org/1999/xlink" width="36" height="36"><defs><style type="text/css"></style></defs><path d="M512 0C229.7344 0 0 229.7344 0 512s229.7344 512 512 512 512-229.7344 512-512S794.2656 0 512 0z m0 972.8c-254.0288 0-460.8-206.7712-460.8-460.8S257.9712 51.2 512 51.2s460.8 206.7712 460.8 460.8-206.7712 460.8-460.8 460.8z" p-id="9797" fill="#ed424b"></path><path d="M707.1232 265.8304a32.64 32.64 0 0 0-46.6944 0L512 416.6656l-148.4288-150.8352a32.64 32.64 0 0 0-46.6944 0 33.8432 33.8432 0 0 0 0 47.4112l113.8688 115.584H340.224c-18.2528 0-32.9984 14.976-32.9984 33.536 0 18.5088 14.7456 33.4848 33.024 33.4848h138.752v90.4448h-138.752c-18.2784 0-33.024 14.9504-33.024 33.4848 0 18.5344 14.7456 33.5104 33.024 33.5104h138.752v132.4032c0 18.56 14.7456 33.5104 32.9984 33.5104s32.9984-14.9504 32.9984-33.5104V653.312h138.752c18.2784 0 33.024-14.976 33.024-33.5104s-14.7456-33.4848-33.024-33.4848h-138.752v-90.4448h138.752c18.2784 0 33.024-14.976 33.024-33.5104s-14.7456-33.5104-33.024-33.5104h-90.496l113.8688-115.584a33.8432 33.8432 0 0 0 0-47.4112z" p-id="9798" fill="#ed424b"></path></svg>