<?xml version="1.0" standalone="no"?><!DOCTYPE svg PUBLIC "-//W3C//DTD SVG 1.1//EN" "http://www.w3.org/Graphics/SVG/1.1/DTD/svg11.dtd"><svg t="1559740803966" class="icon" style="" viewBox="0 0 1024 1024" version="1.1" xmlns="http://www.w3.org/2000/svg" p-id="6191" xmlns:xlink="http://www.w3.org/1999/xlink" width="36" height="36"><defs><style type="text/css"></style></defs><path d="M588.8 633.6 512 480 435.2 633.6 268.8 656 390.4 774.4 361.6 944 512 864 662.4 944 633.6 774.4 755.2 656Z" p-id="6192" fill="#ed424b"></path><path d="M64 384l96 0 0 640-96 0 0-640Z" p-id="6193" fill="#ed424b"></path><path d="M224 320l128 0 0 64-128 0 0-64Z" p-id="6194" fill="#ed424b"></path><path d="M864 384l96 0 0 640-96 0 0-640Z" p-id="6195" fill="#ed424b"></path><path d="M896 0l-256 0c0 70.4-57.6 128-128 128s-128-57.6-128-128L128 0C92.8 0 64 28.8 64 64l0 256 96 0L160 96l150.4 0c35.2 76.8 112 128 201.6 128s166.4-51.2 201.6-128L864 96l0 224 96 0L960 64C960 28.8 931.2 0 896 0z" p-id="6196" fill="#ed424b"></path><path d="M672 320l128 0 0 64-128 0 0-64Z" p-id="6197" fill="#ed424b"></path><path d="M448 320l128 0 0 64-128 0 0-64Z" p-id="6198" fill="#ed424b"></path></svg>