<?xml version="1.0" standalone="no"?><!DOCTYPE svg PUBLIC "-//W3C//DTD SVG 1.1//EN" "http://www.w3.org/Graphics/SVG/1.1/DTD/svg11.dtd"><svg t="1559740648771" class="icon" style="" viewBox="0 0 1024 1024" version="1.1" xmlns="http://www.w3.org/2000/svg" p-id="4352" xmlns:xlink="http://www.w3.org/1999/xlink" width="36" height="36"><defs><style type="text/css"></style></defs><path d="M960.2 402.5V208.3c0-29.9-19.9-54.8-59.8-54.8H123.6c-29.9 0-59.8 24.9-59.8 54.8v199.2c49.8 5 84.7 44.8 84.7 94.6s-34.9 84.7-84.7 89.6v224.1c0 29.9 24.9 54.8 59.8 54.8h776.8c29.9 0 59.8-19.9 59.8-54.8V591.7c-39.8-10-74.7-49.8-74.7-94.6s34.8-84.6 74.7-94.6z m-109.6 99.6c0 54.8 29.9 94.6 74.7 119.5v54.8h5l-5 124.5c0 14.9-10 29.9-29.9 29.9H292.9v-1.2H258v1.2H133.5c-14.9 0-29.9-5-29.9-19.9V626.6c49.8-19.9 79.7-64.7 79.7-119.5s-34.9-99.6-79.7-119.5V218.2c0-14.9 10-29.9 29.9-29.9H258v0.1h34.9v-0.1h602.5c14.9 0 29.9 10 29.9 24.9v169.3c-44.8 25-74.7 69.8-74.7 119.6z" fill="#ed424b" p-id="4353"></path><path d="M603.3 282.8l41.8 21.7c2.5 1.2 2.5 2.5 0 3.7l-12.7 16.4 3.4 286.5c3.7 50.7-18.3 83.8-65.3 99.6 2.5-22.9-3.1-37.4-16.4-43.6-2.5-2.5-1.9-4.3 1.9-5.6 27.8 2.5 39.3-8.4 34.3-32.5l-1.9-311.8-126.8 3.7V406l107-3.7c6.2 2.5 6.2 6.2 0 10.8l-107 1.9v47c0 20.4-0.6 35-1.9 43.6l112.3-3.7c2.5 0 3.7 1.9 3.7 5.6 0 2.5-1.9 4.3-5.6 5.6l-112.3 3.7c-2.5 76.1-58.2 144.5-166.7 204.8-2.5 0-3.7-1.2-3.7-3.7-1.2-1.2-0.6-2.5 1.9-3.7 53.2-35 88.2-69.6 105.2-103.3 19.2-35 29.1-84.5 29.1-148.5v-125l-1.9-50.7c0-3.7 1.2-5 3.7-3.7l36.2 27.2 125-3.7 16.7-23.7z" fill="#ed424b" p-id="4354"></path></svg>